<?xml version="1.0" encoding="UTF-8"?>
<svg version="1.1" xmlns="http://www.w3.org/2000/svg" width="207" height="207">
<path d="M0 0 C1.11503906 0.01289062 2.23007812 0.02578125 3.37890625 0.0390625 C5.11720703 0.08933594 5.11720703 0.08933594 6.890625 0.140625 C8.65212891 0.16769531 8.65212891 0.16769531 10.44921875 0.1953125 C13.3471784 0.2424338 16.24348918 0.30821195 19.140625 0.390625 C19.14942436 1.24268272 19.14942436 1.24268272 19.15840149 2.11195374 C19.22303707 8.09976246 19.30762305 14.08706797 19.40307617 20.07446289 C19.43604323 22.29998073 19.46415992 24.52557652 19.48706055 26.7512207 C19.71267842 57.26207655 19.71267842 57.26207655 34.4375 83.1328125 C45.02677715 91.97761335 59.50733464 96.20312968 73.23046875 95.73828125 C87.06878869 94.08511283 99.99381911 89.2844777 109.1328125 78.42578125 C117.2564615 66.14547917 119.38688789 51.24373482 119.5546875 36.81640625 C119.57405365 35.76656052 119.5934198 34.71671478 119.6133728 33.63505554 C119.67253328 30.32449131 119.71929696 27.01389109 119.765625 23.703125 C119.80386339 21.44074113 119.8429184 19.17837091 119.8828125 16.91601562 C119.97818143 11.40767439 120.06340916 5.89924904 120.140625 0.390625 C124.41123118 0.27473338 128.68143484 0.20347698 132.953125 0.140625 C134.16806641 0.10710938 135.38300781 0.07359375 136.63476562 0.0390625 C138.37983398 0.01972656 138.37983398 0.01972656 140.16015625 0 C141.77047729 -0.0314209 141.77047729 -0.0314209 143.41333008 -0.06347656 C146.140625 0.390625 146.140625 0.390625 147.78681946 2.11190796 C149.35801244 4.75653019 149.52027769 6.24858822 149.52880859 9.30419922 C149.53826508 10.27976776 149.54772156 11.2553363 149.5574646 12.26046753 C149.54835556 13.83696579 149.54835556 13.83696579 149.5390625 15.4453125 C149.54336777 17.08501511 149.54336777 17.08501511 149.54776001 18.75784302 C149.54980229 21.07619747 149.54426107 23.39456909 149.53173828 25.71289062 C149.51584166 29.21785422 149.53150169 32.72163728 149.55078125 36.2265625 C149.56191669 47.6132885 149.50473815 58.41652951 146.140625 69.390625 C145.92599609 70.09783691 145.71136719 70.80504883 145.49023438 71.53369141 C144.25755452 75.23072057 142.67681298 78.81101716 141.140625 82.390625 C140.68042969 83.49857422 140.68042969 83.49857422 140.2109375 84.62890625 C132.46803863 101.72495287 116.61999215 113.28377337 99.703125 120.1015625 C77.64788519 128.0820769 53.0691448 126.1948241 31.80859375 116.7265625 C13.86028342 107.73926802 1.58876085 93.09021897 -4.859375 74.390625 C-5.33503906 73.10091797 -5.33503906 73.10091797 -5.8203125 71.78515625 C-9.16597531 62.427238 -10.17435979 53.29655272 -10.1953125 43.3984375 C-10.2019693 42.29007538 -10.2086261 41.18171326 -10.21548462 40.0397644 C-10.22554623 37.71532844 -10.23030367 35.39086397 -10.22998047 33.06640625 C-10.23438848 29.50473425 -10.27087269 25.9442687 -10.30859375 22.3828125 C-10.31445624 20.11719172 -10.31842943 17.85156508 -10.3203125 15.5859375 C-10.33468353 14.52239044 -10.34905457 13.45884338 -10.36386108 12.36306763 C-10.31883507 5.12994415 -10.31883507 5.12994415 -8.19677734 1.71533203 C-5.25645551 0.04892444 -3.37335199 -0.06884392 0 0 Z " fill="#0268FE" transform="translate(33.859375,57.609375)"/>
<path d="M0 0 C1.33901367 0.02707031 1.33901367 0.02707031 2.70507812 0.0546875 C4.90863504 0.10182241 7.11002601 0.16759343 9.3125 0.25 C9.4288993 11.48187285 9.51747009 22.71359968 9.57156086 33.94595528 C9.59753585 39.16291905 9.63271025 44.37946691 9.68969727 49.59619141 C9.74445182 54.64073588 9.77401125 59.68488303 9.78688622 64.729702 C9.79604875 66.64404419 9.81393877 68.55836728 9.84115028 70.47253799 C10.01798346 83.44008448 9.58675345 96.93799333 1.015625 107.59765625 C-9.47471571 117.77521157 -19.55586931 122.36293945 -34.125 122.4375 C-35.38183594 122.45167969 -36.63867188 122.46585937 -37.93359375 122.48046875 C-41.81050184 122.24244838 -45.00517286 121.45552377 -48.6875 120.25 C-49.42097656 120.01539063 -50.15445313 119.78078125 -50.91015625 119.5390625 C-55.29545739 117.95625742 -58.90808431 116.04348116 -62.6875 113.25 C-63.6775 112.569375 -64.6675 111.88875 -65.6875 111.1875 C-69.99525134 107.51290896 -72.40474792 102.33983377 -74.6875 97.25 C-74.96327881 96.63842041 -75.23905762 96.02684082 -75.52319336 95.39672852 C-78.33598343 88.27978104 -78.02569116 81.24137747 -77.875 73.6875 C-77.86146484 72.39263672 -77.84792969 71.09777344 -77.83398438 69.76367188 C-77.7988737 66.59200786 -77.74969347 63.4212291 -77.6875 60.25 C-74.76984109 60.14193856 -71.85618875 60.06267123 -68.9375 60 C-67.7 59.94972656 -67.7 59.94972656 -66.4375 59.8984375 C-62.75788282 59.83908884 -60.37991073 59.85159752 -57.1484375 61.7109375 C-54.99541877 65.45281497 -55.08996615 68.87461394 -55.0625 73.125 C-54.92656567 81.45777444 -53.87065507 87.38994183 -48.6875 94.25 C-43.5581326 98.882977 -38.18281767 99.70197745 -31.4765625 99.56640625 C-26.01577205 98.94690481 -22.22185974 96.78435974 -18.375 92.9375 C-14.65271492 87.00941636 -13.24202174 82.2508877 -13.30273438 75.2668457 C-13.2973616 74.50171661 -13.29198883 73.73658752 -13.28645325 72.94827271 C-13.27672469 71.29943162 -13.2737161 69.65053963 -13.27680969 68.00167274 C-13.28130964 65.39118315 -13.26722886 62.78136353 -13.24841309 60.17094421 C-13.2055172 53.69334206 -13.19436821 47.21575643 -13.18218994 40.73803711 C-13.17066492 35.25165163 -13.14712794 29.76557448 -13.10749817 24.27931786 C-13.09392484 21.70889221 -13.09809784 19.1388831 -13.10290527 16.56843567 C-13.09356654 14.99394192 -13.0833982 13.41945279 -13.07226562 11.8449707 C-13.07841385 11.13164078 -13.08456207 10.41831085 -13.09089661 9.68336487 C-13.05560323 6.84316895 -12.76483046 4.4570157 -11.7689209 1.79093933 C-8.22966837 -0.82927719 -4.26228839 -0.16213533 0 0 Z " fill="#0565FE" transform="translate(137.6875,24.75)"/>
<path d="M0 0 C1.11503906 0.01289062 2.23007812 0.02578125 3.37890625 0.0390625 C5.11720703 0.08933594 5.11720703 0.08933594 6.890625 0.140625 C8.65212891 0.16769531 8.65212891 0.16769531 10.44921875 0.1953125 C13.3471784 0.2424338 16.24348918 0.30821195 19.140625 0.390625 C19.140625 2.040625 19.140625 3.690625 19.140625 5.390625 C18.810625 4.400625 18.480625 3.410625 18.140625 2.390625 C14.51498313 2.50016908 10.89041069 2.6308746 7.265625 2.765625 C5.71681641 2.81203125 5.71681641 2.81203125 4.13671875 2.859375 C2.65751953 2.91738281 2.65751953 2.91738281 1.1484375 2.9765625 C0.23723145 3.0079834 -0.67397461 3.0394043 -1.61279297 3.07177734 C-4.05868686 3.18945011 -4.05868686 3.18945011 -5.859375 5.390625 C-6.10496912 8.15848962 -6.10496912 8.15848962 -5.984375 11.39453125 C-5.96890625 12.61076172 -5.9534375 13.82699219 -5.9375 15.08007812 C-5.885968 17.63477681 -5.83389659 20.18946467 -5.78125 22.74414062 C-5.69432291 29.62949042 -5.82761052 35.78033569 -7.859375 42.390625 C-8.849375 42.885625 -8.849375 42.885625 -9.859375 43.390625 C-9.95830828 37.9097215 -10.03087365 32.42933855 -10.07910156 26.94775391 C-10.09920761 25.08340399 -10.1264968 23.21911706 -10.16113281 21.35498047 C-10.20969621 18.67399552 -10.23235338 15.99384477 -10.25 13.3125 C-10.27064514 12.48006775 -10.29129028 11.6476355 -10.31256104 10.78997803 C-10.31399664 7.08122805 -10.26741964 5.01398649 -8.20117188 1.85742188 C-5.25154899 0.00990996 -3.4674549 -0.07076439 0 0 Z " fill="#097EFB" transform="translate(33.859375,57.609375)"/>
<path d="M0 0 C4.27060618 -0.11589162 8.54080984 -0.18714802 12.8125 -0.25 C14.02744141 -0.28351562 15.24238281 -0.31703125 16.49414062 -0.3515625 C18.23920898 -0.37089844 18.23920898 -0.37089844 20.01953125 -0.390625 C21.62985229 -0.4220459 21.62985229 -0.4220459 23.27270508 -0.45410156 C26 0 26 0 27.85546875 1.58984375 C29.39825324 4.83864248 29.33862259 7.36168972 29.29296875 10.953125 C29.28872391 11.61334656 29.28447906 12.27356812 29.28010559 12.95379639 C29.26337435 15.05295391 29.22573551 17.15113496 29.1875 19.25 C29.17244584 20.67706942 29.15875871 22.10415396 29.14648438 23.53125 C29.11349001 27.02114817 29.06174743 30.5104787 29 34 C28.67 34 28.34 34 28 34 C27.67 31.69 27.34 29.38 27 27 C26.67 27 26.34 27 26 27 C26 19.08 26 11.16 26 3 C22.08125 2.95875 18.1625 2.9175 14.125 2.875 C12.89023926 2.85679199 11.65547852 2.83858398 10.38330078 2.81982422 C9.41376465 2.8148291 8.44422852 2.80983398 7.4453125 2.8046875 C6.45031738 2.79421387 5.45532227 2.78374023 4.43017578 2.77294922 C1.81828583 2.75620599 1.81828583 2.75620599 0 5 C0 3.35 0 1.7 0 0 Z " fill="#0B8BFB" transform="translate(154,58)"/>
<path d="M0 0 C0.66 0 1.32 0 2 0 C-1.32813605 13.53441994 -13.20058517 25.82780667 -25 33 C-25.99 32.67 -26.98 32.34 -28 32 C-27.01 31.67 -26.02 31.34 -25 31 C-25 30.34 -25 29.68 -25 29 C-24.34 29 -23.68 29 -23 29 C-22.67 28.34 -22.34 27.68 -22 27 C-21.01 27 -20.02 27 -19 27 C-18.67 26.01 -18.34 25.02 -18 24 C-16.35360035 22.64172029 -14.68704193 21.30745749 -13 20 C-12.67 19.34 -12.34 18.68 -12 18 C-11.34 18 -10.68 18 -10 18 C-9.5359375 17.071875 -9.5359375 17.071875 -9.0625 16.125 C-8.375 14.75 -7.6875 13.375 -7 12 C-6.34 12 -5.68 12 -5 12 C-4.87753906 11.42765625 -4.75507813 10.8553125 -4.62890625 10.265625 C-3.97237132 7.90046809 -3.06276488 5.92793203 -1.9375 3.75 C-1.57527344 3.04359375 -1.21304688 2.3371875 -0.83984375 1.609375 C-0.56269531 1.07828125 -0.28554687 0.5471875 0 0 Z " fill="#276BFA" transform="translate(173,138)"/>
<path d="M0 0 C0.33 0 0.66 0 1 0 C1.84433656 6.58046427 2.15366392 12.99408038 2.125 19.625 C2.12886719 20.52734375 2.13273438 21.4296875 2.13671875 22.359375 C2.12944739 27.34752479 1.84861637 32.08341308 1 37 C0.67 37 0.34 37 0 37 C-0.60031603 27.83446058 -1.10109232 18.68752202 -1.125 9.5 C-1.12951172 8.7769165 -1.13402344 8.05383301 -1.13867188 7.30883789 C-1.12404721 2.24809442 -1.12404721 2.24809442 0 0 Z " fill="#1176FB" transform="translate(181,83)"/>
<path d="M0 0 C1.03688965 0.01047363 2.0737793 0.02094727 3.14208984 0.03173828 C4.26357422 0.03818359 5.38505859 0.04462891 6.54052734 0.05126953 C7.71615234 0.06802734 8.89177734 0.08478516 10.10302734 0.10205078 C11.28638672 0.11107422 12.46974609 0.12009766 13.68896484 0.12939453 C16.61885257 0.15302266 19.54834075 0.18596564 22.47802734 0.22705078 C22.47802734 1.87705078 22.47802734 3.52705078 22.47802734 5.22705078 C22.14802734 4.23705078 21.81802734 3.24705078 21.47802734 2.22705078 C17.87293629 2.30783839 14.26954813 2.42068762 10.66552734 2.53955078 C9.64136719 2.56210937 8.61720703 2.58466797 7.56201172 2.60791016 C6.57910156 2.64335938 5.59619141 2.67880859 4.58349609 2.71533203 C3.67752686 2.74151611 2.77155762 2.7677002 1.83813477 2.79467773 C-0.94810348 3.3051182 -1.63959173 4.2076473 -3.52197266 6.22705078 C-4.51197266 6.22705078 -5.50197266 6.22705078 -6.52197266 6.22705078 C-3.77459998 0.33982362 -3.77459998 0.33982362 0 0 Z " fill="#16A3FA" transform="translate(30.52197265625,57.77294921875)"/>
<path d="M0 0 C2.91765891 -0.10806144 5.83131125 -0.18732877 8.75 -0.25 C9.9875 -0.30027344 9.9875 -0.30027344 11.25 -0.3515625 C17.42297754 -0.45112665 17.42297754 -0.45112665 20.578125 2.015625 C21.28195313 2.99789062 21.28195313 2.99789062 22 4 C21.67 4.66 21.34 5.32 21 6 C20.34 4.68 19.68 3.36 19 2 C13.72 2 8.44 2 3 2 C3 3.98 3 5.96 3 8 C2.01 8.99 1.02 9.98 0 11 C0 7.37 0 3.74 0 0 Z " fill="#2579FB" transform="translate(60,85)"/>
<path d="M0 0 C4.27060618 -0.11589162 8.54080984 -0.18714802 12.8125 -0.25 C14.02744141 -0.28351562 15.24238281 -0.31703125 16.49414062 -0.3515625 C18.23920898 -0.37089844 18.23920898 -0.37089844 20.01953125 -0.390625 C21.62985229 -0.4220459 21.62985229 -0.4220459 23.27270508 -0.45410156 C26 0 26 0 27.8737793 2.02441406 C28.24543213 2.67635742 28.61708496 3.32830078 29 4 C28.67 4.66 28.34 5.32 28 6 C27.44586426 5.51249268 26.89172852 5.02498535 26.32080078 4.52270508 C23.57612693 2.72189182 22.11908735 2.62580237 18.8671875 2.63671875 C17.89652344 2.63736328 16.92585938 2.63800781 15.92578125 2.63867188 C14.91902344 2.65478516 13.91226563 2.67089844 12.875 2.6875 C11.86050781 2.68427734 10.84601563 2.68105469 9.80078125 2.67773438 C4.35263934 2.3641595 4.35263934 2.3641595 0 5 C0 3.35 0 1.7 0 0 Z " fill="#25AEFD" transform="translate(154,58)"/>
<path d="M0 0 C1.18613892 0.00785522 1.18613892 0.00785522 2.39624023 0.01586914 C3.67724609 0.02070313 3.67724609 0.02070313 4.98413086 0.02563477 C5.88196289 0.03401367 6.77979492 0.04239258 7.70483398 0.05102539 C8.6065332 0.05553711 9.50823242 0.06004883 10.43725586 0.06469727 C12.67234712 0.07652315 14.90730835 0.09300319 17.14233398 0.11352539 C16.81233398 1.10352539 16.48233398 2.09352539 16.14233398 3.11352539 C15.02213867 3.0787207 13.90194336 3.04391602 12.74780273 3.00805664 C11.27516148 2.979917 9.80250401 2.95261702 8.32983398 2.92602539 C7.5918457 2.90088867 6.85385742 2.87575195 6.09350586 2.84985352 C1.86336938 2.70255201 1.86336938 2.70255201 -1.74438477 4.62524414 C-2.11176758 5.11637695 -2.47915039 5.60750977 -2.85766602 6.11352539 C-3.51766602 6.11352539 -4.17766602 6.11352539 -4.85766602 6.11352539 C-2.56663777 0.15685196 -2.56663777 0.15685196 0 0 Z " fill="#28ABFC" transform="translate(129.857666015625,24.886474609375)"/>
<path d="M0 0 C0.66 0 1.32 0 2 0 C2.17015625 0.97839844 2.3403125 1.95679687 2.515625 2.96484375 C3.76285527 9.81455899 5.04525889 16.10022816 8.23046875 22.36328125 C9 24 9 24 9 26 C8.34 26 7.68 26 7 26 C6.00107301 23.77423549 5.00813567 21.54633213 4.02734375 19.3125 C3.28025775 17.63084634 2.49501616 15.96598547 1.6875 14.3125 C0.78682526 11.28295768 1.29270561 9.04136586 2 6 C1.34 6 0.68 6 0 6 C0 4.02 0 2.04 0 0 Z " fill="#2B81FC" transform="translate(52,106)"/>
<path d="M0 0 C0.99 0 1.98 0 3 0 C4 6.75 4 6.75 4 9 C3.34 9 2.68 9 2 9 C1.67 11.31 1.34 13.62 1 16 C0.67 16 0.34 16 0 16 C0 10.72 0 5.44 0 0 Z " fill="#0C91FB" transform="translate(24,64)"/>
<path d="M0 0 C-0.33 0.99 -0.66 1.98 -1 3 C-8.26 3 -15.52 3 -23 3 C-23 2.34 -23 1.68 -23 1 C-21.81921875 1.01160156 -20.6384375 1.02320313 -19.421875 1.03515625 C-17.86458492 1.04453752 -16.30729312 1.05363736 -14.75 1.0625 C-13.97269531 1.07087891 -13.19539063 1.07925781 -12.39453125 1.08789062 C-11.64042969 1.09111328 -10.88632813 1.09433594 -10.109375 1.09765625 C-9.41811523 1.10289307 -8.72685547 1.10812988 -8.01464844 1.11352539 C-5.25278453 0.95789443 -2.76157072 0 0 0 Z " fill="#1C6BFA" transform="translate(116,152)"/>
<path d="M0 0 C0.66 0 1.32 0 2 0 C2.39832031 0.83144531 2.79664063 1.66289062 3.20703125 2.51953125 C3.73683594 3.60621094 4.26664063 4.69289062 4.8125 5.8125 C5.33457031 6.89144531 5.85664062 7.97039062 6.39453125 9.08203125 C7.76110117 11.56579702 8.87340101 13.1799378 11 15 C10.67 15.99 10.34 16.98 10 18 C1.18451025 6.66287016 1.18451025 6.66287016 0 0 Z " fill="#2C70FB" transform="translate(32,138)"/>
<path d="M0 0 C0.66 0 1.32 0 2 0 C3.41634833 2.83269666 3.3463005 5.47466438 3.5625 8.625 C3.64628906 9.81351563 3.73007812 11.00203125 3.81640625 12.2265625 C3.87699219 13.14179687 3.93757813 14.05703125 4 15 C3.34 15 2.68 15 2 15 C1.66048381 13.43883181 1.32867456 11.87598662 1 10.3125 C0.814375 9.44238281 0.62875 8.57226562 0.4375 7.67578125 C0.01027953 5.06287036 -0.07616201 2.64186962 0 0 Z " fill="#237AFC" transform="translate(24,108)"/>
<path d="M0 0 C0.33 0 0.66 0 1 0 C1 5.28 1 10.56 1 16 C0.34 16 -0.32 16 -1 16 C-1.22197585 13.89722877 -1.42713637 11.79267698 -1.625 9.6875 C-1.74101563 8.51574219 -1.85703125 7.34398438 -1.9765625 6.13671875 C-2 3 -2 3 0 0 Z " fill="#0457FC" transform="translate(62,93)"/>
<path d="M0 0 C6.06732052 1.03767051 11.4373852 2.33961901 17 5 C13.15790627 6.46055379 10.60962522 5.49637507 6.8125 4.1875 C5.74644531 3.83042969 4.68039063 3.47335938 3.58203125 3.10546875 C1 2 1 2 0 0 Z " fill="#2E73FA" transform="translate(68,174)"/>
<path d="M0 0 C5.17930997 1.24303439 8.70166639 2.85487785 13 6 C12.01 6.495 12.01 6.495 11 7 C8.65234375 6.07421875 8.65234375 6.07421875 5.9375 4.6875 C5.03902344 4.23761719 4.14054687 3.78773438 3.21484375 3.32421875 C1 2 1 2 0 0 Z " fill="#286EF7" transform="translate(55,167)"/>
<path d="M0 0 C5.94 0.33 11.88 0.66 18 1 C18 1.33 18 1.66 18 2 C12.06 2.33 6.12 2.66 0 3 C0 2.01 0 1.02 0 0 Z " fill="#0850FC" transform="translate(93,179)"/>
<path d="M0 0 C0.66 0.33 1.32 0.66 2 1 C1.25 2.9375 1.25 2.9375 0 5 C-2.125 5.75 -2.125 5.75 -4 6 C-2.84826645 3.53199953 -1.95216435 1.95216435 0 0 Z " fill="#2AACFD" transform="translate(28,58)"/>
<path d="M0 0 C0.66 0 1.32 0 2 0 C5 5.625 5 5.625 5 9 C4.34 9 3.68 9 3 9 C2.01 6.03 1.02 3.06 0 0 Z " fill="#1F63FB" transform="translate(32,138)"/>
</svg>
